<?xml version="1.0" encoding="UTF-8" standalone="no"?>
<!-- Created with Inkscape (http://www.inkscape.org/) -->

<svg
   xmlns:dc="http://purl.org/dc/elements/1.1/"
   xmlns:cc="http://creativecommons.org/ns#"
   xmlns:rdf="http://www.w3.org/1999/02/22-rdf-syntax-ns#"
   xmlns:svg="http://www.w3.org/2000/svg"
   xmlns="http://www.w3.org/2000/svg"
   xmlns:sodipodi="http://sodipodi.sourceforge.net/DTD/sodipodi-0.dtd"
   xmlns:inkscape="http://www.inkscape.org/namespaces/inkscape"
   width="79.520653mm"
   height="59.545197mm"
   viewBox="0 0 79.520653 59.545197"
   version="1.1"
   id="svg8"
   inkscape:version="0.92.4 5da689c313, 2019-01-14"
   sodipodi:docname="ribbon1.svg">
  <defs
     id="defs2" />
  <sodipodi:namedview
     id="base"
     pagecolor="#ffffff"
     bordercolor="#666666"
     borderopacity="1.0"
     inkscape:pageopacity="0.0"
     inkscape:pageshadow="2"
     inkscape:zoom="0.98994949"
     inkscape:cx="234.40545"
     inkscape:cy="147.24123"
     inkscape:document-units="mm"
     inkscape:current-layer="layer1"
     showgrid="false"
     inkscape:window-width="1362"
     inkscape:window-height="728"
     inkscape:window-x="0"
     inkscape:window-y="18"
     inkscape:window-maximized="0" />
  <metadata
     id="metadata5">
    <rdf:RDF>
      <cc:Work
         rdf:about="">
        <dc:format>image/svg+xml</dc:format>
        <dc:type
           rdf:resource="http://purl.org/dc/dcmitype/StillImage" />
        <dc:title />
      </cc:Work>
    </rdf:RDF>
  </metadata>
  <g
     inkscape:label="Layer 1"
     inkscape:groupmode="layer"
     id="layer1"
     transform="translate(-40.824237,-161.41662)">
    <path
       style="fill:#1e1f63;stroke:none;stroke-width:0.26458332px;stroke-linecap:butt;stroke-linejoin:miter;stroke-opacity:1;fill-opacity:1"
       d="m 61.338356,220.96182 c 7.086773,-9.08451 9.527873,-13.7469 13.096205,-22.71791 l -1.46998,-1.06908 c -3.40272,2.57367 -5.958462,3.45339 -8.68626,4.67722 -3.532557,5.85693 -7.338942,10.34473 -11.225321,14.43255 l 5.345391,-0.93544 z"
       id="path826"
       inkscape:connector-curvature="0"
       sodipodi:nodetypes="ccccccc" />
    <rect
       style="opacity:1;fill:#1e1f63;fill-opacity:1;stroke:none;stroke-width:0.80000001;stroke-linecap:round;stroke-miterlimit:4;stroke-dasharray:none;stroke-opacity:1"
       id="rect843"
       width="12.3"
       height="14.7"
       x="74.434563"
       y="182.0741"
       ry="2.1381562" />
    <path
       style="fill:#1e1f63;stroke:none;stroke-width:0.26458332px;stroke-linecap:butt;stroke-linejoin:miter;stroke-opacity:1;fill-opacity:1"
       d="m 49.311226,185.94951 c -1.83347,-17.84848 10.663421,-17.09723 23.118815,-5.87993 -7.030092,-12.34992 -13.296719,-19.29407 -15.745973,-18.60626 -1.904157,0.48494 -4.759463,4.9902 -8.034744,8.75364 -3.155442,3.62574 -6.363441,6.2181 -7.757087,9.71898 -0.681548,1.56401 3.87739,4.60993 8.418989,6.01357 z"
       id="path845"
       inkscape:connector-curvature="0"
       sodipodi:nodetypes="cccscc" />
    <path
       style="fill:#1e1f63;stroke:none;stroke-width:0.26458332px;stroke-linecap:butt;stroke-linejoin:miter;stroke-opacity:1;fill-opacity:1"
       d="m 72.630492,194.56895 c -6.128397,2.60236 -10.490957,7.04544 -19.243404,6.34765 -2.781903,-0.41742 -1.640613,-10.64283 -1.603617,-12.42803 0.05351,-1.81844 -0.686128,-11.74995 1.837476,-12.96258 6.084453,-2.32877 12.990769,2.07752 18.94273,8.35218 l 0.06682,1.26953 c -1.954897,-0.98819 -5.11236,-3.54893 -5.879928,-2.87315 -0.804866,0.68777 5.624448,4.4683 5.679477,5.21176 -0.04946,1.32559 -8.118227,-0.71518 -8.218538,1.06908 -0.09503,1.44406 8.12388,0.73499 8.15172,1.40316 -0.01303,1.35199 -7.551419,4.32141 -6.815373,5.87993 0.407697,0.84293 4.67712,-2.13611 7.015827,-3.20723 z"
       id="path862"
       inkscape:connector-curvature="0"
       sodipodi:nodetypes="ccccccccccccc" />
    <path
       style="fill:#1e1f63;stroke:none;stroke-width:0.26458332px;stroke-linecap:butt;stroke-linejoin:miter;stroke-opacity:1;fill-opacity:1"
       d="m 99.830768,220.96182 c -7.086771,-9.08451 -9.527871,-13.7469 -13.096201,-22.71791 l 1.46998,-1.06908 c 3.40272,2.57367 5.958461,3.45339 8.686261,4.67722 3.532562,5.85693 7.338942,10.34473 11.225322,14.43255 l -5.34539,-0.93544 z"
       id="path826-4"
       inkscape:connector-curvature="0"
       sodipodi:nodetypes="ccccccc" />
    <path
       style="fill:#1e1f63;stroke:none;stroke-width:0.26458332px;stroke-linecap:butt;stroke-linejoin:miter;stroke-opacity:1;fill-opacity:1"
       d="m 111.8579,185.94951 c 1.83347,-17.84848 -10.66342,-17.09723 -23.118813,-5.87993 7.030091,-12.34992 13.296723,-19.29407 15.745973,-18.60626 1.90416,0.48494 4.75947,4.9902 8.03475,8.75364 3.15544,3.62574 6.36344,6.2181 7.75708,9.71898 0.68155,1.56401 -3.87739,4.60993 -8.41899,6.01357 z"
       id="path845-4"
       inkscape:connector-curvature="0"
       sodipodi:nodetypes="cccscc" />
    <path
       style="fill:#1e1f63;stroke:none;stroke-width:0.26458332px;stroke-linecap:butt;stroke-linejoin:miter;stroke-opacity:1;fill-opacity:1"
       d="m 88.538637,194.56895 c 6.128391,2.60236 10.490961,7.04544 19.243403,6.34765 2.7819,-0.41742 1.64062,-10.64283 1.60362,-12.42803 -0.0535,-1.81844 0.68613,-11.74995 -1.83748,-12.96258 -6.08445,-2.32877 -12.990772,2.07752 -18.942733,8.35218 l -0.0668,1.26953 c 1.9549,-0.98819 5.112361,-3.54893 5.879931,-2.87315 0.80487,0.68777 -5.624441,4.4683 -5.679481,5.21176 0.0495,1.32559 8.118231,-0.71518 8.218541,1.06908 0.095,1.44406 -8.123881,0.73499 -8.151721,1.40316 0.013,1.35199 7.551421,4.32141 6.815381,5.87993 -0.4077,0.84293 -4.677121,-2.13611 -7.015831,-3.20723 z"
       id="path862-4"
       inkscape:connector-curvature="0"
       sodipodi:nodetypes="ccccccccccccc" />
  </g>
</svg>
